<svg width="29" height="14" viewBox="0 0 29 14" fill="none" xmlns="http://www.w3.org/2000/svg">
<path d="M23.856 4.9058L23.268 3.47024C23.1425 3.1496 22.8283 2.70929 22.2685 2.70929C22.1392 2.70929 22.024 2.74148 21.9919 2.75057C21.9896 2.7512 21.9876 2.75171 21.9862 2.75208L21.9718 2.756L21.9575 2.76054L20.4769 3.2333C20.2381 3.30563 19.7159 3.56921 19.7159 4.23422C19.7159 4.45362 19.79 4.64032 19.8191 4.71354L19.8194 4.71442L19.821 4.71834L19.8226 4.72225L21.479 8.76925L20.2421 10.752C20.1519 10.8909 20.0432 11.1114 20.0432 11.3943C20.0432 11.9586 20.4461 12.2347 20.6897 12.34L20.6936 12.3416L20.6976 12.3432L22.0438 12.9049C22.1892 12.9699 22.3343 13.0001 22.4742 13.0001C22.8787 13.0001 23.1374 12.7533 23.2829 12.5804L23.2945 12.5667L23.3055 12.5523C25.2331 10.0223 26.3876 8.2205 27.0645 7.01886C27.4029 6.41823 27.6244 5.96315 27.764 5.6386C27.8336 5.47689 27.885 5.34245 27.9207 5.23477C27.9385 5.1815 27.9545 5.12835 27.9671 5.07748L27.9677 5.07533C27.9752 5.04529 28 4.94556 28 4.83006C28 4.31186 27.6498 4.04285 27.4492 3.93315L26.0754 3.16639C25.8926 3.05316 25.6938 2.99206 25.5035 2.99206C25.312 2.99206 25.1271 3.05278 24.968 3.17472C24.8275 3.2824 24.7386 3.41381 24.6834 3.51127C24.4271 3.9464 24.148 4.41815 23.856 4.9058Z" fill="#FE5D2F" stroke="white" stroke-miterlimit="16"/>
<path d="M20.0689 9.97159L20.071 9.96869L20.0733 9.96578L20.0749 9.96351C20.107 9.91996 20.2154 9.77327 20.2556 9.56839C20.3257 9.21165 20.1794 8.94037 20.0854 8.80984C20.0213 8.72084 19.9475 8.64914 19.8984 8.60508C19.8969 8.59688 19.8954 8.58615 19.8939 8.57226C19.8837 8.47317 19.8922 8.30388 19.9438 8.04131C20.0533 7.4836 20.3077 6.75749 20.6055 5.90754C20.6179 5.87195 20.6305 5.83622 20.643 5.80037L20.6621 5.74609L20.6732 5.68954L20.6829 5.64005C20.723 5.4358 20.7177 5.15341 20.5565 4.88554C20.4011 4.62739 20.1655 4.49105 19.9489 4.42162L18.3983 3.91188L18.3694 3.90229L18.3397 3.89547L18.2939 3.88499C18.2122 3.86631 18.1148 3.85293 18.0095 3.85672C17.6595 3.63643 17.2504 3.46021 16.8196 3.36149C15.6876 3.1022 14.741 3.45554 14.0558 4.07056C13.392 4.66639 12.9781 5.49993 12.8314 6.24699C12.427 8.30616 13.8071 10.2282 15.6559 10.6517C16.0949 10.7522 16.5672 10.7713 17.0504 10.6894C17.2245 10.8775 17.4054 11.0265 17.5621 11.1388C17.6923 11.2319 17.8142 11.3055 17.9153 11.3596C17.9912 11.4001 18.1166 11.4631 18.2344 11.4901C18.7492 11.608 19.0994 11.2541 19.2611 11.0448L19.2642 11.0411L19.2671 11.037L20.0689 9.97159ZM19.9028 8.62427C19.9031 8.62516 19.9032 8.62579 19.9032 8.62579C19.9032 8.62579 19.9031 8.62528 19.9028 8.62427ZM16.4195 7.15148C16.4058 7.22204 16.393 7.29122 16.3814 7.35939C16.3582 7.33995 16.344 7.32 16.3348 7.30346C16.3092 7.25815 16.2896 7.18064 16.3104 7.07485C16.3294 6.97765 16.3871 6.86972 16.4574 6.80483C16.4733 6.79019 16.4878 6.77971 16.5003 6.77214C16.4709 6.90077 16.4441 7.02663 16.4195 7.15148Z" fill="#FC8537" stroke="white" stroke-miterlimit="16"/>
<path d="M10.1254 10.9272H12.0047C12.4304 10.9272 12.7761 10.5537 12.7761 10.094V1.84326C12.7761 1.39373 12.4488 1 12.0047 1H10.1254C9.68125 1 9.354 1.39373 9.354 1.84326V10.094C9.354 10.5537 9.69983 10.9272 10.1254 10.9272Z" fill="#FE5D2F" stroke="white" stroke-miterlimit="16"/>
<path d="M3.74673 11.8834L3.75131 11.8837H3.75589H3.77833C3.99519 11.8837 4.15923 11.6842 4.17733 11.4691L4.17766 11.4652L4.17784 11.4612L4.27958 9.1864C4.66012 9.28562 5.06232 9.33877 5.47254 9.33877C6.67601 9.33877 7.65941 8.93506 8.34305 8.22398C9.027 7.51251 9.39527 6.50931 9.39527 5.34415C9.39527 2.88242 7.42523 1.15564 5.27058 1.15564C4.82226 1.15564 4.36568 1.2406 3.91213 1.39662L1.89078 1.2892L1.88648 1.28894H1.88217H1.85973C1.64709 1.28894 1.46304 1.47363 1.46005 1.70287L1.00023 11.2847L1 11.2896V11.2944C1 11.5351 1.15674 11.7292 1.38516 11.7497L1.38785 11.75L1.39055 11.7501L3.74673 11.8834ZM5.09106 6.54844C4.85824 6.54844 4.6152 6.4929 4.40867 6.40832L4.51864 4.14087C4.64181 4.11587 4.76091 4.1035 4.86666 4.1035C5.61734 4.1035 6.14994 4.63029 6.14994 5.35627C6.14994 5.39237 6.14942 5.70077 6.01404 5.99452C5.94765 6.13856 5.85077 6.27476 5.70847 6.3755C5.567 6.47573 5.36995 6.54844 5.09106 6.54844Z" fill="#FC8537" stroke="white" stroke-miterlimit="16"/>
</svg>
