<svg width="31" height="31" viewBox="0 0 31 31" fill="none" xmlns="http://www.w3.org/2000/svg">
<path d="M15.2465 1.06499L15 0.925302L14.7535 1.06499L3.50349 7.43999L3.22527 7.59765L3.25171 7.91635L4.43421 22.1663L4.45549 22.4228L4.67652 22.5545L14.7441 28.5545L15 28.7071L15.256 28.5545L25.3235 22.5545L25.5446 22.4228L25.5658 22.1663L26.7483 7.91635L26.7747 7.59765L26.4965 7.43999L15.2465 1.06499Z" fill="black" stroke="black"/>
<path d="M15 1.5L3.75 7.875L8.30921 10.125L15 6.375V1.5Z" fill="#FAD9F8"/>
<path d="M3.75 7.875L4.875 22.125L9 19.5L8.30921 10.125L3.75 7.875Z" fill="#F49DF4"/>
<path d="M26.25 7.875L15 1.5V6.375L21.6908 10.125L26.25 7.875Z" fill="#F49DF4"/>
<path d="M25.125 22.125L26.25 7.875L21.6908 10.125L21 19.5L25.125 22.125Z" fill="#D35BFA"/>
<path d="M15 28.125L25.125 22.125L21 19.5L15 22.875V28.125Z" fill="#A02CDD"/>
<path d="M4.875 22.125L15 28.125V22.875L9 19.5L4.875 22.125Z" fill="#BB55F1"/>
<path d="M15 6.375L8.30921 10.125L9 19.5L15 22.875L21 19.5L21.6908 10.125L15 6.375Z" fill="#E79CF7"/>
<g style="mix-blend-mode:soft-light">
<path fill-rule="evenodd" clip-rule="evenodd" d="M26.2494 7.88306L25.125 22.1249L15.0001 28.1249L8.50049 24.2733C12.4802 17.0732 18.7137 11.2926 26.2494 7.88306Z" fill="black"/>
</g>
<path fill-rule="evenodd" clip-rule="evenodd" d="M7.875 10.125L3.75 7.875L8.0625 9.75L14.8125 6L15 1.5L15.1875 6L21.9375 9.75L26.25 7.875L22.3125 10.125L21.7496 19.5325L25.125 22.125L21.347 20.1653L15.375 23.4375L15 28.125L14.625 23.4375L8.65299 20.1653L4.875 22.125L8.4375 19.5L7.875 10.125ZM9 19.5L15 22.875L21 19.5L21.5625 10.125L15 6.375L8.4375 10.125L9 19.5Z" fill="white"/>
<g filter="url(#filter0_i_930_206)">
<path d="M26.0588 21.9412V19C26.0588 17.8954 25.1634 17 24.0588 17H23.9412C22.8366 17 21.9412 17.8954 21.9412 19V21.9412H19C17.8954 21.9412 17 22.8366 17 23.9412V24.0588C17 25.1634 17.8954 26.0588 19 26.0588H21.9412V29C21.9412 30.1046 22.8366 31 23.9412 31H24.0588C25.1634 31 26.0588 30.1046 26.0588 29V26.0588H29C30.1046 26.0588 31 25.1634 31 24.0588V23.9412C31 22.8366 30.1046 21.9412 29 21.9412H26.0588Z" fill="#B3FD09"/>
</g>
<defs>
<filter id="filter0_i_930_206" x="17" y="17" width="14" height="14" filterUnits="userSpaceOnUse" color-interpolation-filters="sRGB">
<feFlood flood-opacity="0" result="BackgroundImageFix"/>
<feBlend mode="normal" in="SourceGraphic" in2="BackgroundImageFix" result="shape"/>
<feColorMatrix in="SourceAlpha" type="matrix" values="0 0 0 0 0 0 0 0 0 0 0 0 0 0 0 0 0 0 127 0" result="hardAlpha"/>
<feOffset dy="1"/>
<feComposite in2="hardAlpha" operator="arithmetic" k2="-1" k3="1"/>
<feColorMatrix type="matrix" values="0 0 0 0 0 0 0 0 0 0 0 0 0 0 0 0 0 0 0.5 0"/>
<feBlend mode="normal" in2="shape" result="effect1_innerShadow_930_206"/>
</filter>
</defs>
</svg>
