<svg width="116" height="64" viewBox="0 0 116 64" fill="none" xmlns="http://www.w3.org/2000/svg">
<path d="M18.2517 27.4179L18 27.2714L17.7484 27.4179L4.24836 35.2804L3.97628 35.4389L4.00162 35.7527L5.42062 53.3277L5.44107 53.5811L5.65783 53.7139L17.7389 61.1139L18 61.2739L18.2612 61.1139L30.3422 53.7139L30.559 53.5811L30.5794 53.3277L31.9984 35.7527L32.0237 35.4389L31.7516 35.2804L18.2517 27.4179Z" fill="black" stroke="black"/>
<path d="M18 27.85L4.5 35.7125L9.97105 38.4875L18 33.8625V27.85Z" fill="#FAD9F8"/>
<path d="M4.5 35.7125L5.85 53.2875L10.8 50.05L9.97105 38.4875L4.5 35.7125Z" fill="#F49DF4"/>
<path d="M31.5 35.7125L18 27.85V33.8625L26.0289 38.4875L31.5 35.7125Z" fill="#F49DF4"/>
<path d="M30.15 53.2875L31.5 35.7125L26.0289 38.4875L25.2 50.05L30.15 53.2875Z" fill="#D35BFA"/>
<path d="M18 60.6875L30.15 53.2875L25.2 50.05L18 54.2125V60.6875Z" fill="#A02CDD"/>
<path d="M5.85 53.2875L18 60.6875V54.2125L10.8 50.05L5.85 53.2875Z" fill="#BB55F1"/>
<path d="M18 33.8625L9.97105 38.4875L10.8 50.05L18 54.2125L25.2 50.05L26.0289 38.4875L18 33.8625Z" fill="#E79CF7"/>
<g style="mix-blend-mode:soft-light">
<path fill-rule="evenodd" clip-rule="evenodd" d="M31.4992 35.7225L30.15 53.2875L18 60.6875L10.2006 55.9372C14.9762 47.0571 22.4564 39.9276 31.4992 35.7225Z" fill="black"/>
</g>
<path fill-rule="evenodd" clip-rule="evenodd" d="M9.45 38.4875L4.5 35.7125L9.675 38.025L17.775 33.4L18 27.85L18.225 33.4L26.325 38.025L31.5 35.7125L26.775 38.4875L26.0996 50.0902L30.15 53.2875L25.6164 50.8706L18.45 54.9063L18 60.6875L17.55 54.9063L10.3836 50.8706L5.85 53.2875L10.125 50.05L9.45 38.4875ZM10.8 50.05L18 54.2125L25.2 50.05L25.875 38.4875L18 33.8625L10.125 38.4875L10.8 50.05Z" fill="white"/>
<path d="M98.2517 26.4179L98 26.2714L97.7484 26.4179L84.2484 34.2804L83.9763 34.4389L84.0016 34.7527L85.4206 52.3277L85.4411 52.5811L85.6578 52.7139L97.7389 60.1139L98 60.2739L98.2612 60.1139L110.342 52.7139L110.559 52.5811L110.579 52.3277L111.998 34.7527L112.024 34.4389L111.752 34.2804L98.2517 26.4179Z" fill="black" stroke="black"/>
<path d="M98 26.85L84.5 34.7125L89.9711 37.4875L98 32.8625V26.85Z" fill="#FAD9F8"/>
<path d="M84.5 34.7125L85.85 52.2875L90.8 49.05L89.9711 37.4875L84.5 34.7125Z" fill="#F49DF4"/>
<path d="M111.5 34.7125L98 26.85V32.8625L106.029 37.4875L111.5 34.7125Z" fill="#F49DF4"/>
<path d="M110.15 52.2875L111.5 34.7125L106.029 37.4875L105.2 49.05L110.15 52.2875Z" fill="#D35BFA"/>
<path d="M98 59.6875L110.15 52.2875L105.2 49.05L98 53.2125V59.6875Z" fill="#A02CDD"/>
<path d="M85.85 52.2875L98 59.6875V53.2125L90.8 49.05L85.85 52.2875Z" fill="#BB55F1"/>
<path d="M98 32.8625L89.9711 37.4875L90.8 49.05L98 53.2125L105.2 49.05L106.029 37.4875L98 32.8625Z" fill="#E79CF7"/>
<g style="mix-blend-mode:soft-light">
<path fill-rule="evenodd" clip-rule="evenodd" d="M111.499 34.7225L110.15 52.2875L98 59.6875L90.2006 54.9372C94.9762 46.0571 102.456 38.9276 111.499 34.7225Z" fill="black"/>
</g>
<path fill-rule="evenodd" clip-rule="evenodd" d="M89.45 37.4875L84.5 34.7125L89.675 37.025L97.775 32.4L98 26.85L98.225 32.4L106.325 37.025L111.5 34.7125L106.775 37.4875L106.1 49.0902L110.15 52.2875L105.616 49.8706L98.45 53.9063L98 59.6875L97.55 53.9063L90.3836 49.8706L85.85 52.2875L90.125 49.05L89.45 37.4875ZM90.8 49.05L98 53.2125L105.2 49.05L105.875 37.4875L98 32.8625L90.125 37.4875L90.8 49.05Z" fill="white"/>
<path d="M58.7495 2.76668L58.5001 2.62308L58.2506 2.76668L34.6255 16.3667L34.3509 16.5248L34.3767 16.8407L36.8599 47.2407L36.8807 47.4954L37.0993 47.6277L58.2411 60.4277L58.5001 60.5845L58.759 60.4277L79.9008 47.6277L80.1194 47.4954L80.1402 47.2407L82.6233 16.8407L82.6491 16.5248L82.3745 16.3667L58.7495 2.76668Z" fill="black" stroke="black"/>
<path d="M58.5 3.20001L34.875 16.8L44.4493 21.6L58.5 13.6V3.20001Z" fill="#FAD9F8"/>
<path d="M34.875 16.8L37.2375 47.2L45.9 41.6L44.4493 21.6L34.875 16.8Z" fill="#F49DF4"/>
<path d="M82.125 16.8L58.5 3.20001V13.6L72.5507 21.6L82.125 16.8Z" fill="#F49DF4"/>
<path d="M79.7625 47.2L82.125 16.8L72.5507 21.6L71.1 41.6L79.7625 47.2Z" fill="#D35BFA"/>
<path d="M58.5 60L79.7625 47.2L71.1 41.6L58.5 48.8V60Z" fill="#A02CDD"/>
<path d="M37.2375 47.2L58.5 60V48.8L45.9 41.6L37.2375 47.2Z" fill="#BB55F1"/>
<path d="M58.5 13.6L44.4493 21.6L45.9 41.6L58.5 48.8L71.1 41.6L72.5507 21.6L58.5 13.6Z" fill="#E79CF7"/>
<g style="mix-blend-mode:soft-light">
<path fill-rule="evenodd" clip-rule="evenodd" d="M82.1237 16.8174L79.7625 47.2L58.5001 60L44.8511 51.7833C53.2084 36.423 66.2988 24.091 82.1237 16.8174Z" fill="black"/>
</g>
<path fill-rule="evenodd" clip-rule="evenodd" d="M43.5375 21.6L34.875 16.8L43.9313 20.8L58.1063 12.8L58.5 3.20001L58.8938 12.8L73.0688 20.8L82.125 16.8L73.8563 21.6L72.6742 41.6694L79.7625 47.2L71.8287 43.0194L59.2875 50L58.5 60L57.7125 50L45.1713 43.0194L37.2375 47.2L44.7188 41.6L43.5375 21.6ZM45.9 41.6L58.5 48.8L71.1 41.6L72.2813 21.6L58.5 13.6L44.7188 21.6L45.9 41.6Z" fill="white"/>
</svg>
